<?xml version="1.0" standalone="no"?>
<!DOCTYPE svg PUBLIC "-//W3C//DTD SVG 20010904//EN"
 "http://www.w3.org/TR/2001/REC-SVG-20010904/DTD/svg10.dtd">
<svg version="1.0" xmlns="http://www.w3.org/2000/svg"
 width="512.000000pt" height="512.000000pt" viewBox="0 0 512.000000 512.000000"
 preserveAspectRatio="xMidYMid meet">

<g transform="translate(0.000000,512.000000) scale(0.100000,-0.100000)"
fill="#ffffff" stroke="none">
<path d="M552 4567 l-232 -232 2 -1870 3 -1870 31 -65 c40 -82 92 -134 174
-174 l65 -31 819 -3 c912 -3 893 -4 993 64 28 19 67 59 87 87 53 77 66 144 66
329 l0 158 573 0 573 0 44 23 c48 24 90 88 90 137 0 14 -10 46 -22 70 -34 67
-86 90 -205 90 l-93 0 0 160 0 160 478 0 c531 0 554 2 647 64 28 18 67 58 88
87 70 103 68 64 65 1155 -3 938 -4 981 -22 1024 -40 95 -117 171 -206 207 -42
17 -113 18 -1027 21 l-983 2 0 143 c0 227 -25 313 -113 394 -57 53 -108 78
-182 92 -39 7 -299 11 -769 11 l-711 0 -233 -233z m1686 -249 l3 -158 -458 0
c-267 0 -485 -4 -522 -10 -156 -26 -267 -138 -291 -296 -7 -46 -10 -381 -8
-1024 l3 -955 28 -60 c36 -78 104 -146 181 -182 l61 -28 503 -3 502 -3 0 -160
0 -159 -93 0 c-119 0 -171 -23 -205 -90 -28 -56 -28 -84 1 -140 33 -67 85 -90
204 -90 l94 0 -3 -158 -3 -157 -795 0 -795 0 -3 1905 c-1 1048 0 1911 3 1918
3 10 168 12 797 10 l793 -3 3 -157z m962 -2878 l0 -160 -320 0 -320 0 0 160 0
160 320 0 320 0 0 -160z"/>
</g>
</svg>
